# MagicaVoxel @ ephtracy

# material
mtllib kitpvp_Char_1.mtl

# normals
vn -1 0 0
vn 1 0 0
vn 0 0 1
vn 0 0 -1
vn 0 -1 0
vn 0 1 0

# texcoords
vt 0.0410156 0.5
vt 0.0605469 0.5
vt 0.537109 0.5
vt 0.779297 0.5
vt 0.849609 0.5
vt 0.994141 0.5

# verts
v -2 0 0.5
v -2 1 0.5
v -2 1 -0.5
v -2 0 -0.5
v 1 0 0.5
v 1 1 0.5
v 1 1 -0.5
v 1 0 -0.5
v -2 2 0.5
v -2 2 -0.5
v 1 2 0.5
v 1 2 -0.5
v -2 3 0.5
v -2 3 -0.5
v -2 4 0.5
v -2 4 -0.5
v 1 3 0.5
v 1 3 -0.5
v 1 4 0.5
v 1 4 -0.5
v -2 4 1.5
v -2 5 1.5
v -2 5 0.5
v -2 5 -0.5
v -2 5 -1.5
v -2 4 -1.5
v 0 13 1.5
v 0 14 1.5
v 0 14 0.5
v 0 13 0.5
v -2 6 1.5
v -2 7 1.5
v -2 7 0.5
v -2 6 0.5
v -2 6 -0.5
v -2 7 -0.5
v -2 7 -1.5
v -2 6 -1.5
v -2 8 1.5
v -2 8 0.5
v -2 8 -0.5
v -2 8 -1.5
v -3 8 2.5
v -3 9 2.5
v -3 9 1.5
v -3 8 1.5
v -3 9 0.5
v -3 8 0.5
v -3 9 -0.5
v -3 8 -0.5
v -3 9 -1.5
v -3 8 -1.5
v -3 9 -2.5
v -3 8 -2.5
v -3 4 0.5
v -3 5 0.5
v -3 5 -0.5
v -3 4 -0.5
v -3 6 0.5
v -3 6 -0.5
v -3 7 0.5
v -3 7 -0.5
v -2 9 1.5
v -2 10 1.5
v -2 10 0.5
v -2 9 0.5
v -2 10 -0.5
v -2 9 -0.5
v -2 12 1.5
v -2 13 1.5
v -2 13 0.5
v -2 12 0.5
v -3 11 -0.5
v -3 12 -0.5
v -3 12 -1.5
v -3 11 -1.5
v -3 11 0.5
v -3 12 0.5
v -3 11 1.5
v -3 12 1.5
v -3 10 1.5
v -3 10 0.5
v -2 11 2.5
v -2 12 2.5
v -2 11 1.5
v 0 10 2.5
v 0 11 2.5
v 0 11 1.5
v 0 10 1.5
v -3 13 0.5
v -3 13 -0.5
v -4 10 0.5
v -4 11 0.5
v -4 11 -0.5
v -4 10 -0.5
v -3 13 -1.5
v -3 10 -1.5
v -3 11 -2.5
v -3 10 -2.5
v -3 12 -2.5
v -2 12 -1.5
v -2 13 -1.5
v -2 13 -2.5
v -2 12 -2.5
v -1 10 -2.5
v -1 11 -2.5
v -1 11 -3.5
v -1 10 -3.5
v -1 12 -2.5
v -1 12 -3.5
v -2 9 -1.5
v -2 10 -1.5
v -2 10 -2.5
v -2 9 -2.5
v -1 8 -2.5
v -1 9 -2.5
v -1 9 -3.5
v -1 8 -3.5
v -3 10 -0.5
v -2 13 -0.5
v -2 14 -0.5
v -2 14 -1.5
v -1 13 0.5
v -1 14 0.5
v -1 14 -0.5
v -1 13 -0.5
v -1 13 -1.5
v -1 14 -1.5
v -1 14 -2.5
v -1 13 -2.5
v -1 0 0.5
v -1 0 -0.5
v -1 1 -0.5
v -1 1 0.5
v 2 0 0.5
v 2 0 -0.5
v 2 1 -0.5
v 2 1 0.5
v -1 2 -0.5
v -1 2 0.5
v 2 2 -0.5
v 2 2 0.5
v -1 3 -0.5
v -1 3 0.5
v -1 4 -0.5
v -1 4 0.5
v 2 3 -0.5
v 2 3 0.5
v 2 4 -0.5
v 2 4 0.5
v 2 4 1.5
v 2 5 0.5
v 2 5 1.5
v 2 4 -1.5
v 2 5 -1.5
v 2 5 -0.5
v 1 13 -1.5
v 1 13 -2.5
v 1 14 -2.5
v 1 14 -1.5
v 2 6 0.5
v 2 6 1.5
v 2 13 -0.5
v 2 13 -1.5
v 2 14 -1.5
v 2 14 -0.5
v 1 13 1.5
v 1 13 0.5
v 1 14 0.5
v 1 14 1.5
v 4 10 0.5
v 4 10 -0.5
v 4 11 -0.5
v 4 11 0.5
v 2 7 0.5
v 2 7 1.5
v 2 6 -0.5
v 2 6 -1.5
v 2 7 -1.5
v 2 7 -0.5
v 2 8 0.5
v 2 8 1.5
v 2 8 -1.5
v 2 8 -0.5
v 3 8 2.5
v 3 8 1.5
v 3 9 1.5
v 3 9 2.5
v 3 8 0.5
v 3 9 0.5
v 3 8 -0.5
v 3 9 -0.5
v 3 8 -1.5
v 3 9 -1.5
v 3 8 -2.5
v 3 9 -2.5
v 3 7 0.5
v 3 7 -0.5
v 3 6 0.5
v 3 6 -0.5
v 3 5 0.5
v 3 5 -0.5
v 3 4 0.5
v 3 4 -0.5
v 2 9 1.5
v 2 9 0.5
v 2 10 0.5
v 2 10 1.5
v 2 9 -0.5
v 2 10 -0.5
v 3 10 1.5
v 3 10 0.5
v 3 11 0.5
v 3 11 1.5
v 3 12 0.5
v 3 12 1.5
v 2 12 1.5
v 2 12 0.5
v 2 13 0.5
v 2 13 1.5
v 3 11 -0.5
v 3 12 -0.5
v 3 11 -1.5
v 3 12 -1.5
v 1 10 2.5
v 1 10 1.5
v 1 11 1.5
v 1 11 2.5
v 2 11 2.5
v 2 11 1.5
v 2 12 2.5
v 3 10 -1.5
v 3 10 -2.5
v 3 11 -2.5
v 3 13 -1.5
v 3 13 -0.5
v 3 13 0.5
v 2 12 -1.5
v 2 12 -2.5
v 2 13 -2.5
v 3 12 -2.5
v 1 10 -2.5
v 1 10 -3.5
v 1 11 -3.5
v 1 11 -2.5
v 1 12 -3.5
v 1 12 -2.5
v 3 10 -0.5
v 2 9 -1.5
v 2 9 -2.5
v 2 10 -2.5
v 2 10 -1.5
v 1 8 -2.5
v 1 8 -3.5
v 1 9 -3.5
v 1 9 -2.5
v 1 13 -0.5
v 1 14 -0.5
v -1 4 1.5
v -1 5 1.5
v 0 4 1.5
v 0 5 1.5
v 1 4 1.5
v 1 5 1.5
v 0 6 1.5
v -1 6 1.5
v 1 6 1.5
v -1 7 1.5
v 0 7 1.5
v 1 7 1.5
v -1 8 1.5
v 0 8 1.5
v 1 8 1.5
v -2 8 2.5
v -1 8 2.5
v -1 9 2.5
v -2 9 2.5
v 0 8 2.5
v 0 9 2.5
v 1 8 2.5
v 1 9 2.5
v 2 8 2.5
v 2 9 2.5
v -1 9 1.5
v -1 10 1.5
v 0 9 1.5
v 1 9 1.5
v -1 11 1.5
v -1 12 1.5
v -1 13 1.5
v 0 12 1.5
v 1 12 1.5
v -1 11 2.5
v -1 12 2.5
v 0 12 2.5
v 1 12 2.5
v -1 5 -1.5
v -1 4 -1.5
v 0 5 -1.5
v 0 4 -1.5
v 1 5 -1.5
v 1 4 -1.5
v 0 13 -2.5
v 0 14 -2.5
v -1 6 -1.5
v 0 6 -1.5
v 1 6 -1.5
v -1 7 -1.5
v 0 7 -1.5
v 1 7 -1.5
v -1 8 -1.5
v 0 8 -1.5
v 1 8 -1.5
v -2 8 -2.5
v 2 8 -2.5
v -2 11 -2.5
v 2 11 -2.5
v 0 12 -2.5
v 0 11 -3.5
v 0 10 -3.5
v 0 12 -3.5
v 0 9 -3.5
v 0 8 -3.5
v 0 4 0.5
v 0 4 -0.5
v 0 8 -2.5
v 0 14 -1.5
v 0 14 -0.5

# faces

usemtl palette

f 1/3/1 2/3/1 3/3/1
f 3/3/1 4/3/1 1/3/1

f 5/3/1 6/3/1 7/3/1
f 7/3/1 8/3/1 5/3/1

f 2/1/1 9/1/1 10/1/1
f 10/1/1 3/1/1 2/1/1

f 6/1/1 11/1/1 12/1/1
f 12/1/1 7/1/1 6/1/1

f 9/5/1 13/5/1 14/5/1
f 14/5/1 10/5/1 9/5/1

f 13/5/1 15/5/1 16/5/1
f 16/5/1 14/5/1 13/5/1

f 11/5/1 17/5/1 18/5/1
f 18/5/1 12/5/1 11/5/1

f 17/5/1 19/5/1 20/5/1
f 20/5/1 18/5/1 17/5/1

f 21/1/1 22/1/1 23/1/1
f 23/1/1 15/1/1 21/1/1

f 16/1/1 24/1/1 25/1/1
f 25/1/1 26/1/1 16/1/1

f 27/4/1 28/4/1 29/4/1
f 29/4/1 30/4/1 27/4/1

f 31/5/1 32/5/1 33/5/1
f 33/5/1 34/5/1 31/5/1

f 35/5/1 36/5/1 37/5/1
f 37/5/1 38/5/1 35/5/1

f 32/5/1 39/5/1 40/5/1
f 40/5/1 33/5/1 32/5/1

f 36/5/1 41/5/1 42/5/1
f 42/5/1 37/5/1 36/5/1

f 43/1/1 44/1/1 45/1/1
f 45/1/1 46/1/1 43/1/1

f 46/1/1 45/1/1 47/1/1
f 47/1/1 48/1/1 46/1/1

f 48/1/1 47/1/1 49/1/1
f 49/1/1 50/1/1 48/1/1

f 50/1/1 49/1/1 51/1/1
f 51/1/1 52/1/1 50/1/1

f 52/1/1 51/1/1 53/1/1
f 53/1/1 54/1/1 52/1/1

f 55/2/1 56/2/1 57/2/1
f 57/2/1 58/2/1 55/2/1

f 56/5/1 59/5/1 60/5/1
f 60/5/1 57/5/1 56/5/1

f 59/5/1 61/5/1 62/5/1
f 62/5/1 60/5/1 59/5/1

f 61/5/1 48/5/1 50/5/1
f 50/5/1 62/5/1 61/5/1

f 63/2/1 64/2/1 65/2/1
f 65/2/1 66/2/1 63/2/1

f 66/2/1 65/2/1 67/2/1
f 67/2/1 68/2/1 66/2/1

f 69/4/1 70/4/1 71/4/1
f 71/4/1 72/4/1 69/4/1

f 73/4/1 74/4/1 75/4/1
f 75/4/1 76/4/1 73/4/1

f 77/4/1 78/4/1 74/4/1
f 74/4/1 73/4/1 77/4/1

f 79/4/1 80/4/1 78/4/1
f 78/4/1 77/4/1 79/4/1

f 81/4/1 79/4/1 77/4/1
f 77/4/1 82/4/1 81/4/1

f 83/4/1 84/4/1 69/4/1
f 69/4/1 85/4/1 83/4/1

f 86/4/1 87/4/1 88/4/1
f 88/4/1 89/4/1 86/4/1

f 78/4/1 90/4/1 91/4/1
f 91/4/1 74/4/1 78/4/1

f 92/2/1 93/2/1 94/2/1
f 94/2/1 95/2/1 92/2/1

f 74/4/1 91/4/1 96/4/1
f 96/4/1 75/4/1 74/4/1

f 97/4/1 76/4/1 98/4/1
f 98/4/1 99/4/1 97/4/1

f 76/4/1 75/4/1 100/4/1
f 100/4/1 98/4/1 76/4/1

f 101/4/1 102/4/1 103/4/1
f 103/4/1 104/4/1 101/4/1

f 105/4/1 106/4/1 107/4/1
f 107/4/1 108/4/1 105/4/1

f 106/4/1 109/4/1 110/4/1
f 110/4/1 107/4/1 106/4/1

f 111/4/1 112/4/1 113/4/1
f 113/4/1 114/4/1 111/4/1

f 115/4/1 116/4/1 117/4/1
f 117/4/1 118/4/1 115/4/1

f 116/4/1 105/4/1 108/4/1
f 108/4/1 117/4/1 116/4/1

f 119/4/1 73/4/1 76/4/1
f 76/4/1 97/4/1 119/4/1

f 49/4/1 119/4/1 97/4/1
f 97/4/1 51/4/1 49/4/1

f 120/4/1 121/4/1 122/4/1
f 122/4/1 102/4/1 120/4/1

f 123/4/1 124/4/1 125/4/1
f 125/4/1 126/4/1 123/4/1

f 127/4/1 128/4/1 129/4/1
f 129/4/1 130/4/1 127/4/1

f 22/5/1 31/5/1 34/5/1
f 34/5/1 23/5/1 22/5/1

f 24/5/1 35/5/1 38/5/1
f 38/5/1 25/5/1 24/5/1

f 131/3/2 132/3/2 133/3/2
f 133/3/2 134/3/2 131/3/2

f 135/3/2 136/3/2 137/3/2
f 137/3/2 138/3/2 135/3/2

f 134/1/2 133/1/2 139/1/2
f 139/1/2 140/1/2 134/1/2

f 138/1/2 137/1/2 141/1/2
f 141/1/2 142/1/2 138/1/2

f 140/5/2 139/5/2 143/5/2
f 143/5/2 144/5/2 140/5/2

f 144/5/2 143/5/2 145/5/2
f 145/5/2 146/5/2 144/5/2

f 142/5/2 141/5/2 147/5/2
f 147/5/2 148/5/2 142/5/2

f 148/5/2 147/5/2 149/5/2
f 149/5/2 150/5/2 148/5/2

f 151/1/2 150/1/2 152/1/2
f 152/1/2 153/1/2 151/1/2

f 149/1/2 154/1/2 155/1/2
f 155/1/2 156/1/2 149/1/2

f 157/4/2 158/4/2 159/4/2
f 159/4/2 160/4/2 157/4/2

f 153/5/2 152/5/2 161/5/2
f 161/5/2 162/5/2 153/5/2

f 163/4/2 164/4/2 165/4/2
f 165/4/2 166/4/2 163/4/2

f 167/4/2 168/4/2 169/4/2
f 169/4/2 170/4/2 167/4/2

f 171/2/2 172/2/2 173/2/2
f 173/2/2 174/2/2 171/2/2

f 162/5/2 161/5/2 175/5/2
f 175/5/2 176/5/2 162/5/2

f 177/5/2 178/5/2 179/5/2
f 179/5/2 180/5/2 177/5/2

f 176/5/2 175/5/2 181/5/2
f 181/5/2 182/5/2 176/5/2

f 180/5/2 179/5/2 183/5/2
f 183/5/2 184/5/2 180/5/2

f 185/1/2 186/1/2 187/1/2
f 187/1/2 188/1/2 185/1/2

f 186/1/2 189/1/2 190/1/2
f 190/1/2 187/1/2 186/1/2

f 189/1/2 191/1/2 192/1/2
f 192/1/2 190/1/2 189/1/2

f 191/1/2 193/1/2 194/1/2
f 194/1/2 192/1/2 191/1/2

f 193/1/2 195/1/2 196/1/2
f 196/1/2 194/1/2 193/1/2

f 197/5/2 198/5/2 191/5/2
f 191/5/2 189/5/2 197/5/2

f 199/5/2 200/5/2 198/5/2
f 198/5/2 197/5/2 199/5/2

f 201/5/2 202/5/2 200/5/2
f 200/5/2 199/5/2 201/5/2

f 203/2/2 204/2/2 202/2/2
f 202/2/2 201/2/2 203/2/2

f 205/2/2 206/2/2 207/2/2
f 207/2/2 208/2/2 205/2/2

f 206/2/2 209/2/2 210/2/2
f 210/2/2 207/2/2 206/2/2

f 211/4/2 212/4/2 213/4/2
f 213/4/2 214/4/2 211/4/2

f 214/4/2 213/4/2 215/4/2
f 215/4/2 216/4/2 214/4/2

f 217/4/2 218/4/2 219/4/2
f 219/4/2 220/4/2 217/4/2

f 213/4/2 221/4/2 222/4/2
f 222/4/2 215/4/2 213/4/2

f 221/4/2 223/4/2 224/4/2
f 224/4/2 222/4/2 221/4/2

f 225/4/2 226/4/2 227/4/2
f 227/4/2 228/4/2 225/4/2

f 229/4/2 230/4/2 217/4/2
f 217/4/2 231/4/2 229/4/2

f 156/5/2 155/5/2 178/5/2
f 178/5/2 177/5/2 156/5/2

f 232/4/2 233/4/2 234/4/2
f 234/4/2 223/4/2 232/4/2

f 222/4/2 224/4/2 235/4/2
f 235/4/2 236/4/2 222/4/2

f 215/4/2 222/4/2 236/4/2
f 236/4/2 237/4/2 215/4/2

f 238/4/2 239/4/2 240/4/2
f 240/4/2 164/4/2 238/4/2

f 223/4/2 234/4/2 241/4/2
f 241/4/2 224/4/2 223/4/2

f 242/4/2 243/4/2 244/4/2
f 244/4/2 245/4/2 242/4/2

f 245/4/2 244/4/2 246/4/2
f 246/4/2 247/4/2 245/4/2

f 248/4/2 232/4/2 223/4/2
f 223/4/2 221/4/2 248/4/2

f 192/4/2 194/4/2 232/4/2
f 232/4/2 248/4/2 192/4/2

f 249/4/2 250/4/2 251/4/2
f 251/4/2 252/4/2 249/4/2

f 253/4/2 254/4/2 255/4/2
f 255/4/2 256/4/2 253/4/2

f 256/4/2 255/4/2 243/4/2
f 243/4/2 242/4/2 256/4/2

f 168/4/2 257/4/2 258/4/2
f 258/4/2 169/4/2 168/4/2

f 1/3/3 131/3/3 134/3/3
f 134/3/3 2/3/3 1/3/3

f 5/3/3 135/3/3 138/3/3
f 138/3/3 6/3/3 5/3/3

f 2/1/3 134/1/3 140/1/3
f 140/1/3 9/1/3 2/1/3

f 6/1/3 138/1/3 142/1/3
f 142/1/3 11/1/3 6/1/3

f 9/5/3 140/5/3 144/5/3
f 144/5/3 13/5/3 9/5/3

f 13/5/3 144/5/3 146/5/3
f 146/5/3 15/5/3 13/5/3

f 11/5/3 142/5/3 148/5/3
f 148/5/3 17/5/3 11/5/3

f 17/5/3 148/5/3 150/5/3
f 150/5/3 19/5/3 17/5/3

f 21/1/3 259/1/3 260/1/3
f 260/1/3 22/1/3 21/1/3

f 259/1/3 261/1/3 262/1/3
f 262/1/3 260/1/3 259/1/3

f 261/1/3 263/1/3 264/1/3
f 264/1/3 262/1/3 261/1/3

f 263/1/3 151/1/3 153/1/3
f 153/1/3 264/1/3 263/1/3

f 260/5/3 262/5/3 265/5/3
f 265/5/3 266/5/3 260/5/3

f 262/5/3 264/5/3 267/5/3
f 267/5/3 265/5/3 262/5/3

f 264/5/3 153/5/3 162/5/3
f 162/5/3 267/5/3 264/5/3

f 257/4/3 163/4/3 166/4/3
f 166/4/3 258/4/3 257/4/3

f 27/4/3 167/4/3 170/4/3
f 170/4/3 28/4/3 27/4/3

f 212/2/3 171/2/3 174/2/3
f 174/2/3 213/2/3 212/2/3

f 31/5/3 266/5/3 268/5/3
f 268/5/3 32/5/3 31/5/3

f 266/5/3 265/5/3 269/5/3
f 269/5/3 268/5/3 266/5/3

f 265/5/3 267/5/3 270/5/3
f 270/5/3 269/5/3 265/5/3

f 267/5/3 162/5/3 176/5/3
f 176/5/3 270/5/3 267/5/3

f 32/5/3 268/5/3 271/5/3
f 271/5/3 39/5/3 32/5/3

f 268/5/3 269/5/3 272/5/3
f 272/5/3 271/5/3 268/5/3

f 269/5/3 270/5/3 273/5/3
f 273/5/3 272/5/3 269/5/3

f 270/5/3 176/5/3 182/5/3
f 182/5/3 273/5/3 270/5/3

f 274/1/3 275/1/3 276/1/3
f 276/1/3 277/1/3 274/1/3

f 275/1/3 278/1/3 279/1/3
f 279/1/3 276/1/3 275/1/3

f 278/1/3 280/1/3 281/1/3
f 281/1/3 279/1/3 278/1/3

f 280/1/3 282/1/3 283/1/3
f 283/1/3 281/1/3 280/1/3

f 43/1/3 274/1/3 277/1/3
f 277/1/3 44/1/3 43/1/3

f 282/1/3 185/1/3 188/1/3
f 188/1/3 283/1/3 282/1/3

f 175/5/3 197/5/3 189/5/3
f 189/5/3 181/5/3 175/5/3

f 161/5/3 199/5/3 197/5/3
f 197/5/3 175/5/3 161/5/3

f 152/5/3 201/5/3 199/5/3
f 199/5/3 161/5/3 152/5/3

f 150/2/3 203/2/3 201/2/3
f 201/2/3 152/2/3 150/2/3

f 55/2/3 15/2/3 23/2/3
f 23/2/3 56/2/3 55/2/3

f 56/5/3 23/5/3 34/5/3
f 34/5/3 59/5/3 56/5/3

f 59/5/3 34/5/3 33/5/3
f 33/5/3 61/5/3 59/5/3

f 61/5/3 33/5/3 40/5/3
f 40/5/3 48/5/3 61/5/3

f 63/2/3 284/2/3 285/2/3
f 285/2/3 64/2/3 63/2/3

f 284/2/3 286/2/3 89/2/3
f 89/2/3 285/2/3 284/2/3

f 286/2/3 287/2/3 226/2/3
f 226/2/3 89/2/3 286/2/3

f 287/2/3 205/2/3 208/2/3
f 208/2/3 226/2/3 287/2/3

f 64/6/3 285/6/3 288/6/3
f 288/6/3 85/6/3 64/6/3

f 285/2/3 89/2/3 88/2/3
f 88/2/3 288/2/3 285/2/3

f 226/6/3 208/6/3 230/6/3
f 230/6/3 227/6/3 226/6/3

f 208/4/3 211/4/3 214/4/3
f 214/4/3 230/4/3 208/4/3

f 230/4/3 214/4/3 216/4/3
f 216/4/3 217/4/3 230/4/3

f 69/4/3 289/4/3 290/4/3
f 290/4/3 70/4/3 69/4/3

f 289/4/3 291/4/3 27/4/3
f 27/4/3 290/4/3 289/4/3

f 291/4/3 292/4/3 167/4/3
f 167/4/3 27/4/3 291/4/3

f 292/4/3 217/4/3 220/4/3
f 220/4/3 167/4/3 292/4/3

f 79/4/3 85/4/3 69/4/3
f 69/4/3 80/4/3 79/4/3

f 81/4/3 64/4/3 85/4/3
f 85/4/3 79/4/3 81/4/3

f 83/4/3 293/4/3 294/4/3
f 294/4/3 84/4/3 83/4/3

f 293/4/3 87/4/3 295/4/3
f 295/4/3 294/4/3 293/4/3

f 86/4/3 225/4/3 228/4/3
f 228/4/3 87/4/3 86/4/3

f 87/4/3 228/4/3 296/4/3
f 296/4/3 295/4/3 87/4/3

f 228/4/3 229/4/3 231/4/3
f 231/4/3 296/4/3 228/4/3

f 78/4/3 72/4/3 71/4/3
f 71/4/3 90/4/3 78/4/3

f 92/2/3 82/2/3 77/2/3
f 77/2/3 93/2/3 92/2/3

f 218/4/3 215/4/3 237/4/3
f 237/4/3 219/4/3 218/4/3

f 209/4/3 192/4/3 248/4/3
f 248/4/3 210/4/3 209/4/3

f 49/4/3 68/4/3 67/4/3
f 67/4/3 119/4/3 49/4/3

f 120/4/3 126/4/3 125/4/3
f 125/4/3 121/4/3 120/4/3

f 123/4/3 30/4/3 29/4/3
f 29/4/3 124/4/3 123/4/3

f 22/5/3 260/5/3 266/5/3
f 266/5/3 31/5/3 22/5/3

f 4/3/4 3/3/4 133/3/4
f 133/3/4 132/3/4 4/3/4

f 8/3/4 7/3/4 137/3/4
f 137/3/4 136/3/4 8/3/4

f 3/1/4 10/1/4 139/1/4
f 139/1/4 133/1/4 3/1/4

f 7/1/4 12/1/4 141/1/4
f 141/1/4 137/1/4 7/1/4

f 10/5/4 14/5/4 143/5/4
f 143/5/4 139/5/4 10/5/4

f 14/5/4 16/5/4 145/5/4
f 145/5/4 143/5/4 14/5/4

f 12/5/4 18/5/4 147/5/4
f 147/5/4 141/5/4 12/5/4

f 18/5/4 20/5/4 149/5/4
f 149/5/4 147/5/4 18/5/4

f 26/1/4 25/1/4 297/1/4
f 297/1/4 298/1/4 26/1/4

f 298/1/4 297/1/4 299/1/4
f 299/1/4 300/1/4 298/1/4

f 300/1/4 299/1/4 301/1/4
f 301/1/4 302/1/4 300/1/4

f 302/1/4 301/1/4 155/1/4
f 155/1/4 154/1/4 302/1/4

f 303/4/4 304/4/4 159/4/4
f 159/4/4 158/4/4 303/4/4

f 157/4/4 160/4/4 165/4/4
f 165/4/4 164/4/4 157/4/4

f 297/5/4 305/5/4 306/5/4
f 306/5/4 299/5/4 297/5/4

f 299/5/4 306/5/4 307/5/4
f 307/5/4 301/5/4 299/5/4

f 248/2/4 221/2/4 173/2/4
f 173/2/4 172/2/4 248/2/4

f 38/5/4 37/5/4 308/5/4
f 308/5/4 305/5/4 38/5/4

f 305/5/4 308/5/4 309/5/4
f 309/5/4 306/5/4 305/5/4

f 306/5/4 309/5/4 310/5/4
f 310/5/4 307/5/4 306/5/4

f 307/5/4 310/5/4 179/5/4
f 179/5/4 178/5/4 307/5/4

f 37/5/4 42/5/4 311/5/4
f 311/5/4 308/5/4 37/5/4

f 308/5/4 311/5/4 312/5/4
f 312/5/4 309/5/4 308/5/4

f 309/5/4 312/5/4 313/5/4
f 313/5/4 310/5/4 309/5/4

f 310/5/4 313/5/4 183/5/4
f 183/5/4 179/5/4 310/5/4

f 314/1/4 114/1/4 116/1/4
f 116/1/4 115/1/4 314/1/4

f 253/1/4 256/1/4 250/1/4
f 250/1/4 315/1/4 253/1/4

f 54/1/4 53/1/4 114/1/4
f 114/1/4 314/1/4 54/1/4

f 315/1/4 250/1/4 196/1/4
f 196/1/4 195/1/4 315/1/4

f 180/5/4 184/5/4 191/5/4
f 191/5/4 198/5/4 180/5/4

f 177/5/4 180/5/4 198/5/4
f 198/5/4 200/5/4 177/5/4

f 156/5/4 177/5/4 200/5/4
f 200/5/4 202/5/4 156/5/4

f 149/2/4 156/2/4 202/2/4
f 202/2/4 204/2/4 149/2/4

f 58/2/4 57/2/4 24/2/4
f 24/2/4 16/2/4 58/2/4

f 57/5/4 60/5/4 35/5/4
f 35/5/4 24/5/4 57/5/4

f 60/5/4 62/5/4 36/5/4
f 36/5/4 35/5/4 60/5/4

f 62/5/4 50/5/4 41/5/4
f 41/5/4 36/5/4 62/5/4

f 113/4/4 316/4/4 106/4/4
f 106/4/4 105/4/4 113/4/4

f 242/4/4 245/4/4 317/4/4
f 317/4/4 251/4/4 242/4/4

f 316/4/4 104/4/4 109/4/4
f 109/4/4 106/4/4 316/4/4

f 245/4/4 247/4/4 239/4/4
f 239/4/4 317/4/4 245/4/4

f 301/5/4 307/5/4 178/5/4
f 178/5/4 155/5/4 301/5/4

f 95/2/4 94/2/4 73/2/4
f 73/2/4 119/2/4 95/2/4

f 75/4/4 96/4/4 102/4/4
f 102/4/4 101/4/4 75/4/4

f 99/4/4 98/4/4 316/4/4
f 316/4/4 113/4/4 99/4/4

f 98/4/4 100/4/4 104/4/4
f 104/4/4 316/4/4 98/4/4

f 251/4/4 317/4/4 234/4/4
f 234/4/4 233/4/4 251/4/4

f 238/4/4 164/4/4 235/4/4
f 235/4/4 224/4/4 238/4/4

f 104/4/4 103/4/4 130/4/4
f 130/4/4 109/4/4 104/4/4

f 109/4/4 130/4/4 303/4/4
f 303/4/4 318/4/4 109/4/4

f 318/4/4 303/4/4 158/4/4
f 158/4/4 247/4/4 318/4/4

f 247/4/4 158/4/4 240/4/4
f 240/4/4 239/4/4 247/4/4

f 317/4/4 239/4/4 241/4/4
f 241/4/4 234/4/4 317/4/4

f 108/4/4 107/4/4 319/4/4
f 319/4/4 320/4/4 108/4/4

f 320/4/4 319/4/4 244/4/4
f 244/4/4 243/4/4 320/4/4

f 107/4/4 110/4/4 321/4/4
f 321/4/4 319/4/4 107/4/4

f 319/4/4 321/4/4 246/4/4
f 246/4/4 244/4/4 319/4/4

f 249/4/4 252/4/4 232/4/4
f 232/4/4 194/4/4 249/4/4

f 256/4/4 242/4/4 251/4/4
f 251/4/4 250/4/4 256/4/4

f 114/4/4 113/4/4 105/4/4
f 105/4/4 116/4/4 114/4/4

f 118/4/4 117/4/4 322/4/4
f 322/4/4 323/4/4 118/4/4

f 323/4/4 322/4/4 255/4/4
f 255/4/4 254/4/4 323/4/4

f 117/4/4 108/4/4 320/4/4
f 320/4/4 322/4/4 117/4/4

f 322/4/4 320/4/4 243/4/4
f 243/4/4 255/4/4 322/4/4

f 51/4/4 97/4/4 112/4/4
f 112/4/4 111/4/4 51/4/4

f 102/4/4 122/4/4 128/4/4
f 128/4/4 127/4/4 102/4/4

f 130/4/4 129/4/4 304/4/4
f 304/4/4 303/4/4 130/4/4

f 25/5/4 38/5/4 305/5/4
f 305/5/4 297/5/4 25/5/4

f 1/3/5 4/3/5 132/3/5
f 132/3/5 131/3/5 1/3/5

f 5/3/5 8/3/5 136/3/5
f 136/3/5 135/3/5 5/3/5

f 21/1/5 15/1/5 146/1/5
f 146/1/5 259/1/5 21/1/5

f 259/1/5 146/1/5 324/1/5
f 324/1/5 261/1/5 259/1/5

f 146/5/5 145/5/5 325/5/5
f 325/5/5 324/5/5 146/5/5

f 324/5/5 325/5/5 20/5/5
f 20/5/5 19/5/5 324/5/5

f 261/1/5 324/1/5 19/1/5
f 19/1/5 263/1/5 261/1/5

f 263/1/5 19/1/5 150/1/5
f 150/1/5 151/1/5 263/1/5

f 16/1/5 26/1/5 298/1/5
f 298/1/5 145/1/5 16/1/5

f 145/1/5 298/1/5 300/1/5
f 300/1/5 325/1/5 145/1/5

f 325/1/5 300/1/5 302/1/5
f 302/1/5 20/1/5 325/1/5

f 20/1/5 302/1/5 154/1/5
f 154/1/5 149/1/5 20/1/5

f 212/2/5 248/2/5 172/2/5
f 172/2/5 171/2/5 212/2/5

f 274/1/5 39/1/5 271/1/5
f 271/1/5 275/1/5 274/1/5

f 275/1/5 271/1/5 272/1/5
f 272/1/5 278/1/5 275/1/5

f 278/1/5 272/1/5 273/1/5
f 273/1/5 280/1/5 278/1/5

f 280/1/5 273/1/5 182/1/5
f 182/1/5 282/1/5 280/1/5

f 43/1/5 46/1/5 39/1/5
f 39/1/5 274/1/5 43/1/5

f 46/1/5 48/1/5 40/1/5
f 40/1/5 39/1/5 46/1/5

f 50/1/5 52/1/5 42/1/5
f 42/1/5 41/1/5 50/1/5

f 42/1/5 314/1/5 115/1/5
f 115/1/5 311/1/5 42/1/5

f 311/1/5 115/1/5 326/1/5
f 326/1/5 312/1/5 311/1/5

f 312/1/5 326/1/5 253/1/5
f 253/1/5 313/1/5 312/1/5

f 313/1/5 253/1/5 315/1/5
f 315/1/5 183/1/5 313/1/5

f 52/1/5 54/1/5 314/1/5
f 314/1/5 42/1/5 52/1/5

f 282/1/5 182/1/5 186/1/5
f 186/1/5 185/1/5 282/1/5

f 182/1/5 181/1/5 189/1/5
f 189/1/5 186/1/5 182/1/5

f 184/1/5 183/1/5 193/1/5
f 193/1/5 191/1/5 184/1/5

f 183/1/5 315/1/5 195/1/5
f 195/1/5 193/1/5 183/1/5

f 150/2/5 149/2/5 204/2/5
f 204/2/5 203/2/5 150/2/5

f 55/2/5 58/2/5 16/2/5
f 16/2/5 15/2/5 55/2/5

f 82/2/5 119/2/5 67/2/5
f 67/2/5 65/2/5 82/2/5

f 207/2/5 210/2/5 248/2/5
f 248/2/5 212/2/5 207/2/5

f 208/4/5 207/4/5 212/4/5
f 212/4/5 211/4/5 208/4/5

f 81/4/5 82/4/5 65/4/5
f 65/4/5 64/4/5 81/4/5

f 83/4/5 85/4/5 288/4/5
f 288/4/5 293/4/5 83/4/5

f 293/4/5 288/4/5 88/4/5
f 88/4/5 87/4/5 293/4/5

f 86/4/5 89/4/5 226/4/5
f 226/4/5 225/4/5 86/4/5

f 228/4/5 227/4/5 230/4/5
f 230/4/5 229/4/5 228/4/5

f 92/2/5 95/2/5 119/2/5
f 119/2/5 82/2/5 92/2/5

f 97/4/5 99/4/5 113/4/5
f 113/4/5 112/4/5 97/4/5

f 252/4/5 251/4/5 233/4/5
f 233/4/5 232/4/5 252/4/5

f 115/4/5 118/4/5 323/4/5
f 323/4/5 326/4/5 115/4/5

f 326/4/5 323/4/5 254/4/5
f 254/4/5 253/4/5 326/4/5

f 327/4/6 160/4/6 159/4/6
f 159/4/6 304/4/6 327/4/6

f 258/4/6 166/4/6 165/4/6
f 165/4/6 160/4/6 258/4/6

f 28/4/6 170/4/6 169/4/6
f 169/4/6 29/4/6 28/4/6

f 213/2/6 174/2/6 173/2/6
f 173/2/6 221/2/6 213/2/6

f 277/1/6 276/1/6 284/1/6
f 284/1/6 63/1/6 277/1/6

f 276/1/6 279/1/6 286/1/6
f 286/1/6 284/1/6 276/1/6

f 279/1/6 281/1/6 287/1/6
f 287/1/6 286/1/6 279/1/6

f 281/1/6 283/1/6 205/1/6
f 205/1/6 287/1/6 281/1/6

f 44/1/6 277/1/6 63/1/6
f 63/1/6 45/1/6 44/1/6

f 45/1/6 63/1/6 66/1/6
f 66/1/6 47/1/6 45/1/6

f 47/1/6 66/1/6 68/1/6
f 68/1/6 49/1/6 47/1/6

f 51/1/6 111/1/6 114/1/6
f 114/1/6 53/1/6 51/1/6

f 283/1/6 188/1/6 187/1/6
f 187/1/6 205/1/6 283/1/6

f 205/1/6 187/1/6 190/1/6
f 190/1/6 206/1/6 205/1/6

f 206/1/6 190/1/6 192/1/6
f 192/1/6 209/1/6 206/1/6

f 249/1/6 194/1/6 196/1/6
f 196/1/6 250/1/6 249/1/6

f 217/4/6 216/4/6 215/4/6
f 215/4/6 218/4/6 217/4/6

f 168/4/6 219/4/6 163/4/6
f 163/4/6 257/4/6 168/4/6

f 70/4/6 290/4/6 123/4/6
f 123/4/6 71/4/6 70/4/6

f 290/4/6 27/4/6 30/4/6
f 30/4/6 123/4/6 290/4/6

f 167/4/6 220/4/6 219/4/6
f 219/4/6 168/4/6 167/4/6

f 71/4/6 123/4/6 126/4/6
f 126/4/6 120/4/6 71/4/6

f 80/4/6 69/4/6 72/4/6
f 72/4/6 78/4/6 80/4/6

f 84/4/6 294/4/6 289/4/6
f 289/4/6 69/4/6 84/4/6

f 294/4/6 295/4/6 291/4/6
f 291/4/6 289/4/6 294/4/6

f 295/4/6 296/4/6 292/4/6
f 292/4/6 291/4/6 295/4/6

f 296/4/6 231/4/6 217/4/6
f 217/4/6 292/4/6 296/4/6

f 90/4/6 71/4/6 120/4/6
f 120/4/6 91/4/6 90/4/6

f 93/2/6 77/2/6 73/2/6
f 73/2/6 94/2/6 93/2/6

f 91/4/6 120/4/6 102/4/6
f 102/4/6 96/4/6 91/4/6

f 75/4/6 101/4/6 104/4/6
f 104/4/6 100/4/6 75/4/6

f 163/4/6 236/4/6 235/4/6
f 235/4/6 164/4/6 163/4/6

f 219/4/6 237/4/6 236/4/6
f 236/4/6 163/4/6 219/4/6

f 102/4/6 127/4/6 130/4/6
f 130/4/6 103/4/6 102/4/6

f 157/4/6 164/4/6 240/4/6
f 240/4/6 158/4/6 157/4/6

f 238/4/6 224/4/6 241/4/6
f 241/4/6 239/4/6 238/4/6

f 109/4/6 318/4/6 321/4/6
f 321/4/6 110/4/6 109/4/6

f 318/4/6 247/4/6 246/4/6
f 246/4/6 321/4/6 318/4/6

f 121/4/6 125/4/6 128/4/6
f 128/4/6 122/4/6 121/4/6

f 125/4/6 328/4/6 327/4/6
f 327/4/6 128/4/6 125/4/6

f 124/4/6 29/4/6 328/4/6
f 328/4/6 125/4/6 124/4/6

f 328/4/6 258/4/6 160/4/6
f 160/4/6 327/4/6 328/4/6

f 128/4/6 327/4/6 304/4/6
f 304/4/6 129/4/6 128/4/6

f 29/4/6 169/4/6 258/4/6
f 258/4/6 328/4/6 29/4/6

# numNormals 6
# numTexCoords 6
# numVerts 328
# numFaces 326
